<?xml version="1.0" standalone="no"?>
<!DOCTYPE svg PUBLIC "-//W3C//DTD SVG 20010904//EN"
 "http://www.w3.org/TR/2001/REC-SVG-20010904/DTD/svg10.dtd">
<svg version="1.0" xmlns="http://www.w3.org/2000/svg"
 width="260.000000pt" height="260.000000pt" viewBox="0 0 260.000000 260.000000"
 preserveAspectRatio="xMidYMid meet">
<metadata>
Created by potrace 1.14, written by Peter Selinger 2001-2017
</metadata>
<g transform="translate(0.000000,260.000000) scale(0.100000,-0.100000)"
fill="#000000" stroke="none">
<path d="M1398 2525 c-2 -2 -30 -5 -63 -8 -133 -14 -300 -69 -424 -139 -31
-18 -60 -36 -66 -40 -5 -5 -39 -30 -75 -57 -154 -115 -294 -298 -375 -491 -36
-86 -74 -223 -83 -299 -13 -117 -7 -329 13 -421 101 -483 475 -861 940 -951
107 -21 400 -17 467 5 7 3 27 7 43 9 39 6 179 54 228 79 126 63 234 155 246
209 16 72 -36 139 -108 139 -22 0 -56 -17 -111 -55 -126 -89 -261 -145 -410
-170 -45 -8 -224 -8 -274 -1 -195 28 -376 123 -526 275 -188 189 -282 415
-284 681 -1 137 5 195 29 284 84 314 341 587 644 685 92 30 141 36 286 36 142
-1 184 -6 283 -37 90 -27 132 -49 230 -120 109 -78 137 -82 198 -26 37 34 44
47 44 77 -1 43 -9 54 -79 109 -146 116 -331 193 -521 217 -51 7 -247 14 -252
10z"/>
</g>
</svg>
